<?xml version="1.0" standalone="no"?>
<!DOCTYPE svg PUBLIC "-//W3C//DTD SVG 20010904//EN"
 "http://www.w3.org/TR/2001/REC-SVG-20010904/DTD/svg10.dtd">
<svg version="1.0" xmlns="http://www.w3.org/2000/svg"
 width="139.000000pt" height="139.000000pt" viewBox="0 0 139.000000 139.000000"
 preserveAspectRatio="xMidYMid meet">
<metadata>
Created by potrace 1.11, written by Peter Selinger 2001-2013
</metadata>
<g transform="translate(0.000000,139.000000) scale(0.100000,-0.100000)"
fill="#000000" stroke="none">
<path d="M256 1215 c-14 -13 -26 -33 -26 -43 0 -28 53 -82 82 -83 21 0 22 -1
3 -8 -11 -5 -30 -5 -42 0 -30 11 -29 5 3 -25 l27 -24 -56 -7 c-30 -4 -60 -4
-65 -1 -6 3 -12 -1 -16 -9 -5 -14 29 -55 46 -55 5 0 6 -4 3 -10 -11 -18 -45
-11 -71 15 -31 31 -47 24 -40 -17 5 -35 32 -68 55 -68 9 0 1 -8 -18 -18 -49
-24 -51 -42 -6 -42 41 0 72 -14 98 -43 19 -22 22 -37 8 -37 -5 0 -7 -15 -5
-32 12 -94 10 -134 -9 -171 -25 -49 -20 -119 18 -212 15 -38 28 -71 29 -72 1
-1 13 -4 26 -7 14 -2 75 -14 135 -26 61 -12 121 -24 135 -26 44 -8 62 -16 81
-35 21 -21 78 -19 91 4 7 13 23 18 108 34 58 10 275 55 276 56 1 1 16 33 34
72 42 89 47 177 13 224 -20 26 -22 37 -16 116 4 63 2 86 -6 81 -25 -16 -9 24
21 49 22 18 40 25 62 24 62 -6 70 22 13 46 -27 11 -28 13 -10 19 29 9 58 73
43 96 -7 11 -14 8 -35 -13 -17 -16 -37 -26 -51 -25 -30 3 -30 4 3 32 31 27 27
62 -7 51 -12 -4 -39 -4 -61 0 l-40 7 32 16 c18 10 35 23 37 30 3 11 0 12 -14
5 -11 -6 -30 -7 -44 -2 -23 6 -23 7 -3 8 12 1 35 13 52 27 40 33 42 74 5 103
-29 23 -56 29 -36 9 7 -7 12 -22 12 -35 0 -36 -39 -46 -145 -37 -185 16 -214
13 -253 -26 l-27 -27 -18 23 c-24 32 -81 45 -158 37 -125 -13 -217 -10 -235 9
-15 14 -16 22 -6 43 15 32 2 32 -32 0z"/>
</g>
</svg>
